<?xml version="1.0" standalone="no"?>
<!DOCTYPE svg PUBLIC "-//W3C//DTD SVG 20010904//EN"
 "http://www.w3.org/TR/2001/REC-SVG-20010904/DTD/svg10.dtd">
<svg version="1.0" xmlns="http://www.w3.org/2000/svg"
 width="859.000000pt" height="859.000000pt" viewBox="0 0 859.000000 859.000000"
 preserveAspectRatio="xMidYMid meet">
<metadata>
Created by potrace 1.14, written by Peter Selinger 2001-2017
</metadata>
<g transform="translate(0.000000,859.000000) scale(0.100000,-0.100000)"
fill="#000000" stroke="none">
<path d="M3870 8024 c-1054 -82 -1976 -414 -2685 -966 -135 -105 -361 -320
-464 -442 -320 -377 -508 -772 -578 -1212 -24 -153 -24 -469 1 -619 85 -523
319 -959 740 -1381 181 -180 313 -289 526 -433 169 -115 332 -209 518 -299 72
-35 132 -68 132 -73 0 -4 -9 -57 -21 -116 -98 -516 -283 -948 -705 -1650 -85
-141 -152 -258 -150 -260 4 -5 229 135 386 240 659 440 1173 903 1510 1360 35
48 70 87 77 87 7 0 77 -11 155 -25 176 -31 439 -61 658 -75 510 -32 1111 19
1620 136 1218 282 2200 951 2628 1791 162 318 238 605 249 938 12 367 -59 688
-226 1030 -429 873 -1405 1551 -2651 1840 -530 123 -1177 171 -1720 129z m895
-494 c716 -39 1424 -232 1989 -542 140 -77 395 -245 506 -335 202 -162 414
-392 539 -583 123 -189 224 -431 265 -635 64 -322 25 -691 -109 -1026 -123
-306 -299 -564 -570 -834 -642 -642 -1588 -1043 -2680 -1136 -184 -16 -640
-16 -830 0 -202 17 -477 54 -665 91 -85 16 -157 26 -161 22 -3 -4 -30 -43 -59
-87 -179 -270 -505 -607 -898 -929 -46 -37 -85 -66 -88 -64 -2 3 18 52 45 109
192 408 331 883 331 1134 l0 51 -112 49 c-948 406 -1542 1048 -1705 1840 -34
167 -43 469 -18 633 29 198 76 351 161 530 106 224 255 425 465 626 623 597
1671 986 2899 1076 279 20 456 23 695 10z"/>
</g>
</svg>
